<svg width="212" height="192" viewBox="0 0 212 192" fill="none" xmlns="http://www.w3.org/2000/svg">
<g clip-path="url(#clip0_11815_17457)">
<rect x="11.0342" width="192" height="192" rx="96" fill="#D9F2EF"/>
<g clip-path="url(#clip1_11815_17457)">
<path d="M41.783 43.8799C50.1189 45.1148 60.9504 54.1711 65.3242 58.5449C44.9475 89.4187 48.7866 112.764 52.5172 120.483C23.8046 123.261 10.0087 97.2657 7.43593 84.0157C6.4068 84.4016 3.27245 84.3216 1.6471 79.7706C-0.282509 74.3677 4.34855 65.6201 7.05001 61.2463C3.96263 60.8604 3.96263 59.3167 3.96263 58.9308C3.96263 58.5449 3.57671 56.6153 13.2248 49.6687C20.9432 44.1114 30.0767 45.0376 33.6786 46.1954C34.6048 43.4168 39.4674 43.4939 41.783 43.8799Z" fill="#B6B6B6"/>
<path d="M37.9147 64.5546C46.2774 64.0151 54.5189 70.2001 57.0459 72.9677C49.9962 86.5249 48.3693 102.251 49.9962 111.47C20.7127 105.505 21.6847 83.5311 22.0304 79.5752C22.416 75.164 26.7238 65.2767 37.9147 64.5546Z" fill="#797979"/>
</g>
<g clip-path="url(#clip2_11815_17457)">
<path d="M171.473 43.8799C163.137 45.1148 152.305 54.1711 147.932 58.5449C168.308 89.4187 164.469 112.764 160.739 120.483C189.451 123.261 203.247 97.2657 205.82 84.0157C206.849 84.4016 209.983 84.3216 211.609 79.7706C213.538 74.3677 208.907 65.6201 206.206 61.2463C209.293 60.8604 209.293 59.3167 209.293 58.9308C209.293 58.5449 209.679 56.6153 200.031 49.6687C192.313 44.1114 183.179 45.0376 179.577 46.1954C178.651 43.4168 173.788 43.4939 171.473 43.8799Z" fill="#B6B6B6"/>
<path d="M175.341 64.5546C166.978 64.0151 158.737 70.2001 156.21 72.9677C163.26 86.5249 164.887 102.251 163.26 111.47C192.543 105.505 191.571 83.5311 191.225 79.5752C190.84 75.164 186.532 65.2767 175.341 64.5546Z" fill="#797979"/>
</g>
<g clip-path="url(#clip3_11815_17457)">
<path d="M151.345 190.058C154.662 164.468 140.88 146.619 133.575 140.893C129.31 140.419 127.454 142.67 127.059 143.855C119.951 169.918 128.836 197.166 130.02 198.35C130.968 199.298 132.785 199.535 133.575 199.535C145.895 200.483 150.555 193.612 151.345 190.058Z" fill="#B6B6B6"/>
<path d="M157.346 187.406C159.341 162.955 146.858 144.258 139.799 140.236C130.321 137.867 127.827 142.013 127.359 143.198C120.804 159.805 123.54 184.665 127.952 191.178C136.8 196.155 152.484 191.442 156.578 188.807C157.052 188.502 157.301 187.968 157.346 187.406Z" fill="#E9E9E9"/>
</g>
<g clip-path="url(#clip4_11815_17457)">
<path d="M61.908 190.058C58.5909 164.468 72.3727 146.619 79.6783 140.893C83.9431 140.419 85.7992 142.67 86.1942 143.855C93.3023 169.918 84.4172 197.166 83.2325 198.35C82.2847 199.298 80.4681 199.535 79.6783 199.535C67.3575 200.483 62.6978 193.612 61.908 190.058Z" fill="#B6B6B6"/>
<path d="M55.9084 187.406C53.9138 162.955 66.3968 144.258 73.4564 140.236C82.9339 137.867 85.428 142.013 85.8956 143.198C92.4506 159.805 89.7153 184.665 85.3032 191.178C76.4547 196.155 60.7712 191.442 56.6767 188.807C56.2026 188.502 55.9543 187.968 55.9084 187.406Z" fill="#E9E9E9"/>
</g>
<g clip-path="url(#clip5_11815_17457)">
<path d="M107.081 214.279L74.4731 213.13C73.8879 213.109 73.4058 212.669 73.3407 212.087C70.5092 186.779 71.0898 155.185 74.2846 139.887C76.0888 139.326 79.6258 138.498 83.0727 138.338C84.6881 138.264 86.2837 138.336 87.6719 138.651C103.363 141.155 116.891 140.439 131.767 138.258C135.294 138.571 137.822 139.312 138.613 139.643C140.362 171.71 139.816 189.43 138.669 212.008C138.638 212.621 138.143 213.112 137.53 213.135L107.081 214.279Z" fill="#F2F2F2"/>
<path d="M105.442 175.184C105.442 180.401 106.627 210.132 106.627 214.279" stroke="#E5E5E5" stroke-width="1.77703"/>
<g filter="url(#filter0_d_11815_17457)">
<path d="M94.8986 148.735C90.8507 144.254 88.9442 139.422 88.2645 137.866L81.1564 138.458L78.9827 148.545C78.8117 149.338 79.3992 150.093 80.2104 150.123L87.222 150.377C88.1302 150.41 88.5889 151.266 88.0183 151.973C87.0175 153.214 85.5483 154.863 84.5029 156.035C84.0622 156.529 84.0597 157.276 84.5398 157.732C89.8929 162.813 101.56 167.061 106.983 168.612L108.778 166.475C105.838 162.428 98.9466 153.216 94.8986 148.735Z" fill="white"/>
</g>
<g filter="url(#filter1_d_11815_17457)">
<path d="M105.732 170.662C108.584 166.068 119.993 147.46 123.805 139.051L131.506 138.459L134.609 148.307C134.854 149.082 134.337 149.889 133.532 149.992L129.081 150.564C128.092 150.692 127.606 151.837 128.201 152.637L132.606 158.554C132.578 159.444 130.6 161.932 122.912 164.768C115.224 167.603 107.914 173.764 105.22 176.49C103.604 174.896 104.752 171.931 105.732 170.662Z" fill="white"/>
</g>
<path d="M91.5222 149.94L88.1279 138.18C105.125 142.251 119.754 140.235 124.398 139.051L121.75 151.645L107.813 166.891L91.5222 149.94Z" fill="#4DB8AF"/>
<path d="M95.2854 148.311C91.6868 143.853 90.6015 139.576 90.043 138.458L104.852 140.828C103.999 142.532 99.5722 146.439 96.8218 148.502C96.3398 148.863 95.6639 148.779 95.2854 148.311Z" fill="#55CCC2"/>
<path d="M118.57 148.316C122.164 143.982 123.248 140.761 123.807 139.644L108.998 140.829C109.85 142.533 114.277 146.44 117.028 148.502C117.51 148.864 118.185 148.78 118.57 148.316Z" fill="#55CCC2"/>
<path d="M102.358 150.514L104.602 145.761H109.312L111.691 150.518C111.838 150.814 111.869 151.154 111.775 151.471L108.422 162.821C108.058 164.053 106.32 164.072 105.929 162.848L102.295 151.467C102.194 151.153 102.217 150.812 102.358 150.514Z" fill="#424242"/>
<path d="M102.529 145.011L101.889 143.197H111.959L111.368 144.968C111.013 146.033 110.016 146.751 108.894 146.751H104.989C103.883 146.751 102.897 146.054 102.529 145.011Z" fill="#404040"/>
<circle cx="109.963" cy="179.791" r="1.95639" fill="#828282"/>
<circle cx="109.963" cy="190.044" r="1.95639" fill="#828282"/>
<g clip-path="url(#clip6_11815_17457)">
<path d="M77.4087 153.427C78.5499 152.795 79.4625 152.621 79.7314 152.629C76.9336 145.102 81.0398 137.777 83.9758 135.546C86.5903 133.189 94.0702 128.355 103.074 127.881C112.077 127.407 123.806 132.731 127.952 135.498L131.506 134.989C127.952 130.843 114.921 124.518 103.666 124.92C90.398 125.394 84.312 132.028 80.699 135.388C74.8497 140.827 75.7737 150.128 77.4087 153.427Z" fill="#404040"/>
<path d="M76.8579 155.314L77.4107 156.922C79.8138 155.777 81.4698 155.46 81.9975 155.446L81.414 153.748C80.9718 152.462 79.4774 152.109 78.733 152.365C76.3937 153.086 76.7035 154.768 76.8579 155.314Z" fill="#656161"/>
<path d="M74.3184 171.171L71.6021 171.406C71.0856 170.484 71.3145 169.407 71.4792 167.852C71.6439 166.297 72.9917 155.78 81.5902 155.221C88.4689 154.775 93.8845 160.383 95.513 163.086L92.9893 164.753C90.996 162.441 86.9513 156.458 80.1619 158.792C74.7304 160.659 74.2402 168.135 74.3184 171.171Z" fill="#404040"/>
<path d="M72.2529 171.296C72.1496 176.226 73.2071 183.34 73.8325 186.321C75.5729 191.847 80.7809 191.424 83.5146 190.485L83.9971 190.319L84.4381 189.568L84.1618 188.764C84.0434 188.884 83.8351 188.976 83.7458 189.007C79.1897 190.573 76.0686 189.049 75.2618 185.83C74.6163 183.255 73.9263 175.068 73.662 171.296L72.2529 171.296Z" fill="#A2A2A2"/>
<path d="M94.922 163.647C98.0348 167.472 101.527 173.563 102.867 176.299C104.892 181.727 100.525 184.596 97.792 185.537L97.3091 185.702L96.4995 185.381L96.2231 184.577C96.3906 184.599 96.6111 184.543 96.7005 184.512C101.257 182.946 102.781 179.825 101.438 176.791C100.364 174.363 95.874 167.482 93.7635 164.345L94.922 163.647Z" fill="#A2A2A2"/>
<path d="M85.5504 190.185C85.1685 190.236 84.3565 190.295 83.9982 190.319L84.5286 189.537L84.2522 188.733L85.2656 188.485C85.9781 188 86.4353 187.916 86.5749 187.935C88.0333 187.993 87.9122 189.306 87.6693 189.956C87.1724 191.125 85.9031 190.63 85.5504 190.185Z" fill="#404040"/>
<path d="M96.0052 186.55C96.3379 186.356 97.0148 185.903 97.3117 185.702L96.4128 185.411L96.1364 184.607L95.1844 185.034C94.3246 185.09 93.9123 185.305 93.8137 185.406C92.6992 186.348 93.6025 187.31 94.1934 187.673C95.3045 188.289 96.0005 187.118 96.0052 186.55Z" fill="#404040"/>
<path d="M132.371 143.929L130.247 165.571L132.839 165.825C133.368 160.82 134.534 149.485 134.964 144.184C135.261 140.516 133.291 137.1 131.317 134.77L127.437 135.143C130.754 137.088 132.615 141.44 132.371 143.929Z" fill="#404040"/>
<rect x="119.659" y="189.4" width="14.2162" height="2.36937" rx="1.18468" fill="#D9D9D9"/>
<circle cx="6.98563" cy="6.98563" r="6.98563" transform="matrix(0.995217 0.097692 0.097692 -0.995217 123.213 177.242)" fill="#404040"/>
<circle cx="5.5209" cy="5.5209" r="5.5209" transform="matrix(0.995217 0.097692 0.097692 -0.995217 124.914 176.051)" fill="#656161"/>
<circle cx="3.49282" cy="3.49282" r="3.49282" transform="matrix(0.995217 0.097692 0.097692 -0.995217 127.132 174.23)" fill="#A2A2A2"/>
</g>
</g>
<g clip-path="url(#clip7_11815_17457)">
<path d="M44.4495 92.5023C53.927 51.2752 84.3339 42.1531 98.3527 42.7454C104.276 30.8986 117.9 34.4525 113.753 35.6372C110.436 36.585 110.002 39.9812 110.199 41.5609C111.384 40.9685 117.9 38.0068 116.123 40.3762C114.701 42.2717 115.925 43.1404 116.715 43.3379C130.017 44.5226 159.064 56.014 168.841 92.5023C181.063 138.113 133.876 143.198 110.2 143.198C83.5008 143.198 32.6026 144.036 44.4495 92.5023Z" fill="#CECECE"/>
<g clip-path="url(#clip8_11815_17457)">
<path d="M106.627 105.683C95.2721 105.683 86.0674 115.429 86.0674 127.451C86.0674 133.476 88.3789 138.929 92.1142 142.871L98.9266 143.198H106.627H114.327L121.139 142.871C124.874 138.929 127.186 133.476 127.186 127.451C127.186 115.429 117.981 105.683 106.627 105.683Z" fill="#E9E9E9"/>
<path d="M106.527 130.167C102.641 130.167 100.413 126.579 99.4727 124.933C103.423 125.497 105.587 122.816 106.527 121.405C107.656 123.663 111.23 124.697 112.876 124.933C111.466 127.754 110.413 130.167 106.527 130.167Z" fill="#404040"/>
<path d="M102.296 127.049C104.259 129.575 108.406 130.167 110.761 127.049C109.351 124.933 105.118 123.663 102.296 127.049Z" fill="#F27A7A"/>
<path d="M94.5342 122.816C96.6675 125.168 103 127.049 106.527 121.405C107.938 123.522 112.735 127.896 117.815 122.816" stroke="#404040" stroke-width="1.54009" stroke-linecap="round"/>
<path d="M95.0854 101.676C95.5296 97.145 97.043 93.946 98.8884 91.7468C102.538 87.3979 109.769 86.9137 113.579 91.122C116.326 94.1558 117.525 98.4846 117.932 101.676C120.031 118.132 116.054 120.689 106.085 120.689C96.3546 120.689 93.8162 114.621 95.0854 101.676Z" fill="#404040"/>
<path d="M112.012 99.719C111 99.719 110.736 98.7077 110.868 96.5502C110.981 94.7155 113.068 94.6397 113.236 96.4701C113.239 96.4972 113.241 96.5239 113.243 96.5502C113.461 99.2928 113.048 99.719 112.012 99.719Z" fill="white"/>
</g>
<g clip-path="url(#clip9_11815_17457)">
<path d="M86.4888 68.5625C82.6728 68.5625 79.8883 69.9851 78.1709 71.3984C77.3866 72.0438 77.9863 73.0712 78.9977 72.977C83.4505 72.5622 87.0833 72.9873 89.6873 73.6253C91.476 74.0635 93.388 72.6539 92.2989 71.1688C91.2485 69.7364 89.4449 68.5625 86.4888 68.5625Z" fill="#404040"/>
<path d="M128.544 68.5625C132.36 68.5625 135.145 69.9851 136.862 71.3984C137.647 72.0438 137.047 73.0712 136.036 72.977C131.583 72.5622 127.95 72.9873 125.346 73.6253C123.557 74.0635 121.645 72.6539 122.734 71.1688C123.785 69.7364 125.588 68.5625 128.544 68.5625Z" fill="#404040"/>
<g clip-path="url(#clip10_11815_17457)">
<circle cx="78.1955" cy="92.8488" r="11.8469" fill="white"/>
<path d="M78.1955 81.002C71.6527 81.002 66.3486 86.306 66.3486 92.8488C66.3486 97.1003 68.5881 100.829 71.9517 102.919C69.2942 98.9697 65.9932 90.0056 74.0491 85.7407C82.105 81.4758 88.0679 88.7024 90.0424 92.8488C90.0424 86.306 84.7383 81.002 78.1955 81.002Z" fill="#404040"/>
<path d="M90.0421 94.0328C90.0421 99.9213 85.2685 104.695 79.38 104.695C76.4736 104.431 73.9217 104.641 72.2718 103.51C70.2229 102.106 68.7178 98.1792 68.7178 94.0328C68.7178 88.1442 73.4914 83.3706 79.38 83.3706C85.2685 83.3706 90.0421 88.1442 90.0421 94.0328Z" fill="white"/>
<circle cx="80.5654" cy="92.8481" r="9.4775" fill="#404040"/>
<circle cx="85.303" cy="91.6643" r="2.36937" fill="white"/>
</g>
<g clip-path="url(#clip11_11815_17457)">
<circle cx="11.8469" cy="11.8469" r="11.8469" transform="matrix(-1 0 0 1 146.907 81.002)" fill="white"/>
<path d="M135.06 81.002C141.603 81.002 146.907 86.306 146.907 92.8488C146.907 97.1003 144.668 100.829 141.304 102.919C143.962 98.9697 147.263 90.0056 139.207 85.7407C131.151 81.4758 125.188 88.7024 123.213 92.8488C123.213 86.306 128.518 81.002 135.06 81.002Z" fill="#404040"/>
<path d="M123.214 94.0328C123.214 99.9213 127.987 104.695 133.876 104.695C136.782 104.431 139.334 104.641 140.984 103.51C143.033 102.106 144.538 98.1792 144.538 94.0328C144.538 88.1442 139.764 83.3706 133.876 83.3706C127.987 83.3706 123.214 88.1442 123.214 94.0328Z" fill="white"/>
<circle cx="9.4775" cy="9.4775" r="9.4775" transform="matrix(-1 0 0 1 142.168 83.3706)" fill="#404040"/>
<circle cx="2.36937" cy="2.36937" r="2.36937" transform="matrix(-1 0 0 1 130.322 89.2949)" fill="white"/>
</g>
</g>
</g>
</g>
<g clip-path="url(#clip12_11815_17457)">
<g clip-path="url(#clip13_11815_17457)">
<path d="M41.6941 43.8799C50.03 45.1148 60.8616 54.1711 65.2354 58.5449C44.8587 89.4187 48.6977 112.764 52.4283 120.483C23.7157 123.261 9.91988 97.2657 7.34706 84.0157C6.31794 84.4016 3.18358 84.3216 1.55824 79.7706C-0.371376 74.3677 4.25969 65.6201 6.96114 61.2463C3.87376 60.8604 3.87376 59.3167 3.87376 58.9308C3.87376 58.5449 3.48784 56.6153 13.1359 49.6687C20.8543 44.1114 29.9878 45.0376 33.5898 46.1954C34.516 43.4168 39.3786 43.4939 41.6941 43.8799Z" fill="#B6B6B6"/>
<path d="M37.8268 64.5546C46.1895 64.0151 54.431 70.2001 56.958 72.9677C49.9083 86.5249 48.2814 102.251 49.9083 111.47C20.6248 105.505 21.5968 83.5311 21.9426 79.5752C22.3281 75.164 26.6359 65.2767 37.8268 64.5546Z" fill="#797979"/>
</g>
<g clip-path="url(#clip14_11815_17457)">
<path d="M171.385 43.8799C163.049 45.1148 152.218 54.1711 147.844 58.5449C168.22 89.4187 164.381 112.764 160.651 120.483C189.363 123.261 203.159 97.2657 205.732 84.0157C206.761 84.4016 209.896 84.3216 211.521 79.7706C213.45 74.3677 208.819 65.6201 206.118 61.2463C209.205 60.8604 209.205 59.3167 209.205 58.9308C209.205 58.5449 209.591 56.6153 199.943 49.6687C192.225 44.1114 183.091 45.0376 179.489 46.1954C178.563 43.4168 173.701 43.4939 171.385 43.8799Z" fill="#B6B6B6"/>
<path d="M175.252 64.5546C166.89 64.0151 158.648 70.2001 156.121 72.9677C163.171 86.5249 164.798 102.251 163.171 111.47C192.454 105.505 191.482 83.5311 191.137 79.5752C190.751 75.164 186.443 65.2767 175.252 64.5546Z" fill="#797979"/>
</g>
<g clip-path="url(#clip15_11815_17457)">
<path d="M151.257 190.058C154.574 164.468 140.792 146.619 133.487 140.893C129.222 140.419 127.366 142.67 126.971 143.855C119.863 169.918 128.748 197.166 129.933 198.35C130.88 199.298 132.697 199.535 133.487 199.535C145.808 200.483 150.467 193.612 151.257 190.058Z" fill="#B6B6B6"/>
<path d="M157.259 187.406C159.253 162.955 146.77 144.258 139.711 140.236C130.233 137.867 127.739 142.013 127.271 143.198C120.716 159.805 123.452 184.665 127.864 191.178C136.712 196.155 152.396 191.442 156.49 188.807C156.964 188.502 157.213 187.968 157.259 187.406Z" fill="#E9E9E9"/>
</g>
<g clip-path="url(#clip16_11815_17457)">
<path d="M61.8201 190.058C58.503 164.468 72.2849 146.619 79.5904 140.893C83.8552 140.419 85.7113 142.67 86.1063 143.855C93.2144 169.918 84.3293 197.166 83.1446 198.35C82.1968 199.298 80.3802 199.535 79.5904 199.535C67.2696 200.483 62.6099 193.612 61.8201 190.058Z" fill="#B6B6B6"/>
<path d="M55.8205 187.406C53.8259 162.955 66.3089 144.258 73.3685 140.236C82.846 137.867 85.3401 142.013 85.8077 143.198C92.3627 159.805 89.6274 184.665 85.2153 191.178C76.3668 196.155 60.6833 191.442 56.5888 188.807C56.1147 188.502 55.8664 187.968 55.8205 187.406Z" fill="#E9E9E9"/>
</g>
<g clip-path="url(#clip17_11815_17457)">
<path d="M106.993 214.279L74.3852 213.13C73.8001 213.109 73.3179 212.669 73.2528 212.087C70.4213 186.779 71.0019 155.185 74.1967 139.887C76.001 139.326 79.5379 138.498 82.9848 138.338C84.6002 138.264 86.1958 138.336 87.584 138.651C103.275 141.155 116.803 140.439 131.68 138.258C135.206 138.571 137.734 139.312 138.526 139.643C140.275 171.71 139.728 189.43 138.581 212.008C138.55 212.621 138.056 213.112 137.442 213.135L106.993 214.279Z" fill="#F2F2F2"/>
<g filter="url(#filter2_d_11815_17457)">
<path d="M94.8098 148.735C90.7618 144.254 88.8554 139.422 88.1757 137.866L81.0675 138.458L78.8938 148.545C78.7228 149.338 79.3104 150.093 80.1216 150.123L87.1331 150.377C88.0413 150.41 88.5 151.266 87.9294 151.973C86.9286 153.214 85.4595 154.863 84.414 156.035C83.9734 156.529 83.9708 157.276 84.4509 157.732C89.804 162.813 101.471 167.061 106.894 168.612L108.69 166.475C105.75 162.428 98.8577 153.216 94.8098 148.735Z" fill="white"/>
</g>
<g filter="url(#filter3_d_11815_17457)">
<path d="M105.644 170.662C108.496 166.068 119.905 147.46 123.717 139.051L131.418 138.459L134.521 148.307C134.766 149.082 134.25 149.889 133.444 149.992L128.993 150.564C128.004 150.692 127.518 151.837 128.113 152.637L132.518 158.554C132.49 159.444 130.512 161.932 122.824 164.768C115.137 167.603 107.827 173.764 105.133 176.49C103.516 174.896 104.664 171.931 105.644 170.662Z" fill="white"/>
</g>
<path d="M91.4343 149.94L88.04 138.18C105.037 142.251 119.667 140.235 124.31 139.051L121.662 151.645L107.725 166.891L91.4343 149.94Z" fill="#4DB8AF"/>
<path d="M95.1966 148.311C91.5979 143.853 90.5127 139.576 89.9541 138.458L104.763 140.828C103.911 142.532 99.4833 146.439 96.7329 148.502C96.2509 148.863 95.575 148.779 95.1966 148.311Z" fill="#55CCC2"/>
<path d="M118.482 148.316C122.076 143.982 123.16 140.761 123.719 139.644L108.91 140.829C109.762 142.533 114.19 146.44 116.94 148.502C117.422 148.864 118.097 148.78 118.482 148.316Z" fill="#55CCC2"/>
<path d="M102.269 150.514L104.513 145.761H109.223L111.602 150.518C111.75 150.814 111.78 151.154 111.686 151.471L108.333 162.821C107.969 164.053 106.231 164.072 105.84 162.848L102.206 151.467C102.106 151.153 102.128 150.812 102.269 150.514Z" fill="#424242"/>
<path d="M102.44 145.011L101.8 143.197H111.87L111.279 144.968C110.924 146.033 109.928 146.751 108.805 146.751H104.9C103.794 146.751 102.808 146.054 102.44 145.011Z" fill="#404040"/>
<g clip-path="url(#clip18_11815_17457)">
<path d="M77.3198 153.427C78.4611 152.795 79.3736 152.621 79.6425 152.629C76.8448 145.102 80.951 137.777 83.8869 135.546C86.5014 133.189 93.9813 128.355 102.985 127.881C111.989 127.407 123.717 132.731 127.864 135.498L131.417 134.989C127.863 130.843 114.832 124.518 103.577 124.92C90.3091 125.394 84.2231 132.028 80.6101 135.388C74.7609 140.827 75.6848 150.128 77.3198 153.427Z" fill="#404040"/>
<path d="M76.77 155.314L77.3228 156.922C79.7259 155.777 81.3819 155.46 81.9096 155.446L81.3261 153.748C80.8839 152.462 79.3895 152.109 78.6451 152.365C76.3058 153.086 76.6156 154.768 76.77 155.314Z" fill="#656161"/>
<path d="M74.2296 171.171L71.5132 171.406C70.9968 170.484 71.2257 169.407 71.3904 167.852C71.5551 166.297 72.9029 155.78 81.5013 155.221C88.3801 154.775 93.7956 160.383 95.4241 163.086L92.9004 164.753C90.9071 162.441 86.8625 156.458 80.0731 158.792C74.6416 160.659 74.1514 168.135 74.2296 171.171Z" fill="#404040"/>
<path d="M72.165 171.296C72.0617 176.226 73.1192 183.34 73.7446 186.321C75.4851 191.847 80.693 191.424 83.4267 190.485L83.9092 190.319L84.3502 189.568L84.0739 188.764C83.9555 188.884 83.7472 188.976 83.6579 189.007C79.1019 190.573 75.9807 189.049 75.1739 185.83C74.5284 183.255 73.8385 175.068 73.5741 171.296L72.165 171.296Z" fill="#A2A2A2"/>
<path d="M94.8341 163.647C97.9469 167.472 101.439 173.563 102.779 176.299C104.804 181.727 100.437 184.596 97.7041 185.537L97.2212 185.702L96.4116 185.381L96.1352 184.577C96.3027 184.599 96.5232 184.543 96.6126 184.512C101.169 182.946 102.693 179.825 101.35 176.791C100.276 174.363 95.7861 167.482 93.6756 164.345L94.8341 163.647Z" fill="#A2A2A2"/>
<path d="M132.283 143.929L130.159 165.571L132.751 165.825C133.28 160.82 134.446 149.485 134.876 144.184C135.173 140.516 133.203 137.1 131.229 134.77L127.35 135.143C130.666 137.088 132.528 141.44 132.283 143.929Z" fill="#404040"/>
<circle cx="6.98563" cy="6.98563" r="6.98563" transform="matrix(0.995217 0.097692 0.097692 -0.995217 123.125 177.242)" fill="#404040"/>
<circle cx="5.5209" cy="5.5209" r="5.5209" transform="matrix(0.995217 0.097692 0.097692 -0.995217 124.826 176.051)" fill="#656161"/>
<circle cx="3.49282" cy="3.49282" r="3.49282" transform="matrix(0.995217 0.097692 0.097692 -0.995217 127.044 174.23)" fill="#A2A2A2"/>
</g>
</g>
<g clip-path="url(#clip19_11815_17457)">
<path d="M44.3606 92.5023C53.8381 51.2752 84.2451 42.1531 98.2639 42.7454C104.188 30.8986 117.811 34.4525 113.665 35.6372C110.347 36.585 109.913 39.9812 110.111 41.5609C111.295 40.9685 117.811 38.0068 116.034 40.3762C114.612 42.2717 115.836 43.1404 116.626 43.3379C129.928 44.5226 158.975 56.014 168.752 92.5023C180.974 138.113 133.787 143.198 110.111 143.198C83.4119 143.198 32.5137 144.036 44.3606 92.5023Z" fill="#CECECE"/>
<g clip-path="url(#clip20_11815_17457)">
<path d="M106.539 105.683C95.1842 105.683 85.9795 115.429 85.9795 127.451C85.9795 133.476 88.291 138.929 92.0263 142.871L98.8387 143.198H106.539H114.24L121.051 142.871C124.786 138.929 127.098 133.476 127.098 127.451C127.098 115.429 117.893 105.683 106.539 105.683Z" fill="#E9E9E9"/>
<path d="M106.439 130.167C102.554 130.167 100.325 126.579 99.3848 124.933C103.335 125.497 105.499 122.816 106.439 121.405C107.568 123.663 111.143 124.697 112.789 124.933C111.378 127.754 110.325 130.167 106.439 130.167Z" fill="#404040"/>
<path d="M102.208 127.049C104.171 129.575 108.318 130.167 110.674 127.049C109.263 124.933 105.03 123.663 102.208 127.049Z" fill="#F27A7A"/>
<path d="M94.4453 122.816C96.5786 125.168 102.911 127.049 106.438 121.405C107.849 123.522 112.646 127.896 117.726 122.816" stroke="#404040" stroke-width="1.54009" stroke-linecap="round"/>
<path d="M94.9965 101.676C95.4408 97.145 96.9541 93.946 98.7995 91.7468C102.449 87.3979 109.68 86.9137 113.49 91.122C116.237 94.1558 117.436 98.4846 117.843 101.676C119.942 118.132 115.965 120.689 105.997 120.689C96.2658 120.689 93.7273 114.621 94.9965 101.676Z" fill="#404040"/>
<path d="M111.924 99.719C110.912 99.719 110.649 98.7077 110.781 96.5502C110.893 94.7155 112.98 94.6397 113.149 96.4701C113.151 96.4972 113.153 96.5239 113.155 96.5502C113.374 99.2928 112.96 99.719 111.924 99.719Z" fill="white"/>
</g>
<g clip-path="url(#clip21_11815_17457)">
<path d="M86.3999 68.5625C82.584 68.5625 79.7994 69.9851 78.0821 71.3984C77.2977 72.0438 77.8974 73.0712 78.9088 72.977C83.3616 72.5622 86.9944 72.9873 89.5984 73.6253C91.3872 74.0635 93.2992 72.6539 92.21 71.1688C91.1596 69.7364 89.356 68.5625 86.3999 68.5625Z" fill="#404040"/>
<path d="M128.456 68.5625C132.271 68.5625 135.056 69.9851 136.773 71.3984C137.558 72.0438 136.958 73.0712 135.947 72.977C131.494 72.5622 127.861 72.9873 125.257 73.6253C123.468 74.0635 121.556 72.6539 122.645 71.1688C123.696 69.7364 125.499 68.5625 128.456 68.5625Z" fill="#404040"/>
<g clip-path="url(#clip22_11815_17457)">
<circle cx="78.1076" cy="92.8488" r="11.8469" fill="white"/>
<path d="M78.1076 81.002C71.5648 81.002 66.2607 86.306 66.2607 92.8488C66.2607 97.1003 68.5002 100.829 71.8638 102.919C69.2063 98.9697 65.9053 90.0056 73.9612 85.7407C82.0171 81.4758 87.98 88.7024 89.9545 92.8488C89.9545 86.306 84.6505 81.002 78.1076 81.002Z" fill="#404040"/>
<path d="M89.9533 94.0328C89.9533 99.9213 85.1796 104.695 79.2911 104.695C76.3847 104.431 73.8328 104.641 72.183 103.51C70.134 102.106 68.6289 98.1792 68.6289 94.0328C68.6289 88.1442 73.4025 83.3706 79.2911 83.3706C85.1796 83.3706 89.9533 88.1442 89.9533 94.0328Z" fill="white"/>
<circle cx="80.4775" cy="92.8481" r="9.4775" fill="#404040"/>
<circle cx="85.2151" cy="91.6643" r="2.36937" fill="white"/>
</g>
<g clip-path="url(#clip23_11815_17457)">
<circle cx="11.8469" cy="11.8469" r="11.8469" transform="matrix(-1 0 0 1 146.818 81.002)" fill="white"/>
<path d="M134.971 81.002C141.514 81.002 146.818 86.306 146.818 92.8488C146.818 97.1003 144.579 100.829 141.215 102.919C143.873 98.9697 147.174 90.0056 139.118 85.7407C131.062 81.4758 125.099 88.7024 123.125 92.8488C123.125 86.306 128.429 81.002 134.971 81.002Z" fill="#404040"/>
<path d="M123.126 94.0328C123.126 99.9213 127.899 104.695 133.788 104.695C136.694 104.431 139.246 104.641 140.896 103.51C142.945 102.106 144.45 98.1792 144.45 94.0328C144.45 88.1442 139.677 83.3706 133.788 83.3706C127.899 83.3706 123.126 88.1442 123.126 94.0328Z" fill="white"/>
<circle cx="9.4775" cy="9.4775" r="9.4775" transform="matrix(-1 0 0 1 142.079 83.3706)" fill="#404040"/>
<circle cx="2.36937" cy="2.36937" r="2.36937" transform="matrix(-1 0 0 1 130.233 89.2949)" fill="white"/>
</g>
</g>
</g>
</g>
<defs>
<filter id="filter0_d_11815_17457" x="74.2144" y="137.866" width="39.3027" height="40.2236" filterUnits="userSpaceOnUse" color-interpolation-filters="sRGB">
<feFlood flood-opacity="0" result="BackgroundImageFix"/>
<feColorMatrix in="SourceAlpha" type="matrix" values="0 0 0 0 0 0 0 0 0 0 0 0 0 0 0 0 0 0 127 0" result="hardAlpha"/>
<feOffset dy="4.73874"/>
<feGaussianBlur stdDeviation="2.36937"/>
<feComposite in2="hardAlpha" operator="out"/>
<feColorMatrix type="matrix" values="0 0 0 0 0 0 0 0 0 0 0 0 0 0 0 0 0 0 0.04 0"/>
<feBlend mode="normal" in2="BackgroundImageFix" result="effect1_dropShadow_11815_17457"/>
<feBlend mode="normal" in="SourceGraphic" in2="effect1_dropShadow_11815_17457" result="shape"/>
</filter>
<filter id="filter1_d_11815_17457" x="99.6734" y="138.459" width="39.7353" height="47.5087" filterUnits="userSpaceOnUse" color-interpolation-filters="sRGB">
<feFlood flood-opacity="0" result="BackgroundImageFix"/>
<feColorMatrix in="SourceAlpha" type="matrix" values="0 0 0 0 0 0 0 0 0 0 0 0 0 0 0 0 0 0 127 0" result="hardAlpha"/>
<feOffset dy="4.73874"/>
<feGaussianBlur stdDeviation="2.36937"/>
<feComposite in2="hardAlpha" operator="out"/>
<feColorMatrix type="matrix" values="0 0 0 0 0 0 0 0 0 0 0 0 0 0 0 0 0 0 0.04 0"/>
<feBlend mode="normal" in2="BackgroundImageFix" result="effect1_dropShadow_11815_17457"/>
<feBlend mode="normal" in="SourceGraphic" in2="effect1_dropShadow_11815_17457" result="shape"/>
</filter>
<filter id="filter2_d_11815_17457" x="74.1255" y="137.866" width="39.3027" height="40.2236" filterUnits="userSpaceOnUse" color-interpolation-filters="sRGB">
<feFlood flood-opacity="0" result="BackgroundImageFix"/>
<feColorMatrix in="SourceAlpha" type="matrix" values="0 0 0 0 0 0 0 0 0 0 0 0 0 0 0 0 0 0 127 0" result="hardAlpha"/>
<feOffset dy="4.73874"/>
<feGaussianBlur stdDeviation="2.36937"/>
<feComposite in2="hardAlpha" operator="out"/>
<feColorMatrix type="matrix" values="0 0 0 0 0 0 0 0 0 0 0 0 0 0 0 0 0 0 0.04 0"/>
<feBlend mode="normal" in2="BackgroundImageFix" result="effect1_dropShadow_11815_17457"/>
<feBlend mode="normal" in="SourceGraphic" in2="effect1_dropShadow_11815_17457" result="shape"/>
</filter>
<filter id="filter3_d_11815_17457" x="99.5855" y="138.459" width="39.7353" height="47.5087" filterUnits="userSpaceOnUse" color-interpolation-filters="sRGB">
<feFlood flood-opacity="0" result="BackgroundImageFix"/>
<feColorMatrix in="SourceAlpha" type="matrix" values="0 0 0 0 0 0 0 0 0 0 0 0 0 0 0 0 0 0 127 0" result="hardAlpha"/>
<feOffset dy="4.73874"/>
<feGaussianBlur stdDeviation="2.36937"/>
<feComposite in2="hardAlpha" operator="out"/>
<feColorMatrix type="matrix" values="0 0 0 0 0 0 0 0 0 0 0 0 0 0 0 0 0 0 0.04 0"/>
<feBlend mode="normal" in2="BackgroundImageFix" result="effect1_dropShadow_11815_17457"/>
<feBlend mode="normal" in="SourceGraphic" in2="effect1_dropShadow_11815_17457" result="shape"/>
</filter>
<clipPath id="clip0_11815_17457">
<rect x="11.0342" width="192" height="192" rx="96" fill="white"/>
</clipPath>
<clipPath id="clip1_11815_17457">
<rect width="63.9731" height="77.0046" fill="white" transform="translate(1.19141 43.6841)"/>
</clipPath>
<clipPath id="clip2_11815_17457">
<rect width="63.9731" height="77.0046" fill="white" transform="matrix(-1 0 0 1 212.064 43.6841)"/>
</clipPath>
<clipPath id="clip3_11815_17457">
<rect width="35.5406" height="60.419" fill="white" transform="matrix(-1 0 0 1 158.754 139.645)"/>
</clipPath>
<clipPath id="clip4_11815_17457">
<rect width="35.5406" height="60.419" fill="white" transform="translate(54.502 139.645)"/>
</clipPath>
<clipPath id="clip5_11815_17457">
<rect width="108.991" height="78.1893" fill="white" transform="translate(52.1318 136.089)"/>
</clipPath>
<clipPath id="clip6_11815_17457">
<rect width="67.5272" height="67.5272" fill="white" transform="translate(71.0879 124.243)"/>
</clipPath>
<clipPath id="clip7_11815_17457">
<rect width="127.946" height="108.991" fill="white" transform="matrix(-1 0 0 1 170.601 34.207)"/>
</clipPath>
<clipPath id="clip8_11815_17457">
<rect width="42.6487" height="55.6803" fill="white" transform="translate(85.3037 87.5176)"/>
</clipPath>
<clipPath id="clip9_11815_17457">
<rect width="80.5587" height="36.7253" fill="white" transform="translate(66.3486 68.5625)"/>
</clipPath>
<clipPath id="clip10_11815_17457">
<rect x="66.3486" y="81.002" width="23.6937" height="23.6937" rx="11.8469" fill="white"/>
</clipPath>
<clipPath id="clip11_11815_17457">
<rect width="23.6937" height="23.6937" rx="11.8469" transform="matrix(-1 0 0 1 146.907 81.002)" fill="white"/>
</clipPath>
<clipPath id="clip12_11815_17457">
<rect width="211.862" height="153.379" fill="white" transform="translate(0 18.7588)"/>
</clipPath>
<clipPath id="clip13_11815_17457">
<rect width="63.9731" height="77.0046" fill="white" transform="translate(1.10352 43.6841)"/>
</clipPath>
<clipPath id="clip14_11815_17457">
<rect width="63.9731" height="77.0046" fill="white" transform="matrix(-1 0 0 1 211.976 43.6841)"/>
</clipPath>
<clipPath id="clip15_11815_17457">
<rect width="35.5406" height="60.419" fill="white" transform="matrix(-1 0 0 1 158.666 139.645)"/>
</clipPath>
<clipPath id="clip16_11815_17457">
<rect width="35.5406" height="60.419" fill="white" transform="translate(54.4131 139.645)"/>
</clipPath>
<clipPath id="clip17_11815_17457">
<rect width="108.991" height="78.1893" fill="white" transform="translate(52.0439 136.089)"/>
</clipPath>
<clipPath id="clip18_11815_17457">
<rect width="67.5272" height="67.5272" fill="white" transform="translate(71 124.243)"/>
</clipPath>
<clipPath id="clip19_11815_17457">
<rect width="127.946" height="108.991" fill="white" transform="matrix(-1 0 0 1 170.513 34.207)"/>
</clipPath>
<clipPath id="clip20_11815_17457">
<rect width="42.6487" height="55.6803" fill="white" transform="translate(85.2148 87.5176)"/>
</clipPath>
<clipPath id="clip21_11815_17457">
<rect width="80.5587" height="36.7253" fill="white" transform="translate(66.2607 68.5625)"/>
</clipPath>
<clipPath id="clip22_11815_17457">
<rect x="66.2607" y="81.002" width="23.6937" height="23.6937" rx="11.8469" fill="white"/>
</clipPath>
<clipPath id="clip23_11815_17457">
<rect width="23.6937" height="23.6937" rx="11.8469" transform="matrix(-1 0 0 1 146.818 81.002)" fill="white"/>
</clipPath>
</defs>
</svg>
