<svg width="329" height="302" viewBox="0 0 329 302" fill="none" xmlns="http://www.w3.org/2000/svg">
<g clip-path="url(#clip0_12868_20736)">
<path d="M63.3302 15.0916C76.3357 17.0183 93.2347 31.1477 100.059 37.9715C68.2675 86.1399 74.2571 122.563 80.0774 134.605C35.2809 138.94 13.757 98.3827 9.74294 77.7104C8.13733 78.3125 3.24719 78.1876 0.711372 71.0873C-2.29915 62.6578 4.9261 49.0101 9.14083 42.1863C4.324 41.5842 4.324 39.1757 4.324 38.5736C4.324 37.9715 3.72189 34.961 18.7745 24.1231C30.8166 15.4528 45.0664 16.8979 50.686 18.7042C52.1311 14.3691 59.7176 14.4895 63.3302 15.0916Z" fill="#B6B6B6"/>
<path d="M57.2946 47.3481C70.3419 46.5063 83.2001 56.1559 87.1426 60.4739C76.1438 81.6254 73.6056 106.161 76.1438 120.544C30.4566 111.238 31.973 76.9547 32.5125 70.7828C33.114 63.9005 39.8349 48.4746 57.2946 47.3481Z" fill="#797979"/>
</g>
<g clip-path="url(#clip1_12868_20736)">
<path d="M265.669 15.0916C252.663 17.0183 235.764 31.1477 228.94 37.9715C260.732 86.1399 254.742 122.563 248.922 134.605C293.718 138.94 315.242 98.3827 319.256 77.7104C320.862 78.3125 325.752 78.1876 328.288 71.0873C331.298 62.6578 324.073 49.0101 319.858 42.1863C324.675 41.5842 324.675 39.1757 324.675 38.5736C324.675 37.9715 325.277 34.961 310.225 24.1231C298.182 15.4528 283.933 16.8979 278.313 18.7042C276.868 14.3691 269.281 14.4895 265.669 15.0916Z" fill="#B6B6B6"/>
<path d="M271.704 47.3481C258.657 46.5063 245.799 56.1559 241.856 60.4739C252.855 81.6254 255.393 106.161 252.855 120.544C298.542 111.238 297.026 76.9547 296.487 70.7828C295.885 63.9005 289.164 48.4746 271.704 47.3481Z" fill="#797979"/>
</g>
<g clip-path="url(#clip2_12868_20736)">
<path d="M234.268 243.154C239.443 203.231 217.941 175.383 206.543 166.449C199.89 165.71 196.994 169.222 196.378 171.07C185.288 211.733 199.15 254.244 200.998 256.093C202.477 257.571 205.311 257.941 206.543 257.941C225.766 259.42 233.036 248.699 234.268 243.154Z" fill="#B6B6B6"/>
<path d="M243.628 239.017C246.74 200.87 227.265 171.7 216.251 165.424C201.464 161.727 197.573 168.196 196.843 170.045C186.616 195.955 190.884 234.741 197.768 244.902C211.573 252.667 236.042 245.314 242.43 241.203C243.169 240.727 243.557 239.893 243.628 239.017Z" fill="#E9E9E9"/>
</g>
<g clip-path="url(#clip3_12868_20736)">
<path d="M94.7319 243.154C89.5566 203.231 111.059 175.383 122.457 166.449C129.11 165.71 132.006 169.222 132.622 171.07C143.712 211.733 129.85 254.244 128.002 256.093C126.523 257.571 123.689 257.941 122.457 257.941C103.234 259.42 95.964 248.699 94.7319 243.154Z" fill="#B6B6B6"/>
<path d="M85.3686 239.017C82.2567 200.87 101.732 171.7 112.746 165.424C127.533 161.727 131.424 168.196 132.154 170.045C142.381 195.955 138.113 234.741 131.23 244.902C117.424 252.667 92.9554 245.314 86.5672 241.203C85.8276 240.727 85.4401 239.893 85.3686 239.017Z" fill="#E9E9E9"/>
</g>
<g clip-path="url(#clip4_12868_20736)">
<path d="M134.925 289.262C131.968 280.39 128.764 268.93 127.532 264.31H163.574V296.835C163.574 298.805 162.031 300.424 160.061 300.456C153.059 300.569 142.09 300.352 135.85 300.352C127.532 300.352 130.305 293.883 133.077 292.958C135.295 292.219 135.234 290.186 134.925 289.262Z" fill="#B6B6B6"/>
<path d="M135.852 300.351C127.534 300.351 130.307 293.882 133.079 292.958C133.079 292.958 134.927 292.034 134.927 291.11C136.725 292.308 138.869 292.875 141.024 292.721L163.576 291.11V292.958V296.835C163.576 298.805 162.033 300.424 160.063 300.456C153.06 300.569 142.092 300.351 135.852 300.351Z" fill="#383838"/>
<path d="M193.148 289.262C196.105 280.39 199.309 268.93 200.541 264.31H164.499V296.835C164.499 298.805 166.042 300.424 168.012 300.456C175.015 300.569 185.983 300.352 192.224 300.352C200.541 300.352 197.769 293.883 194.996 292.958C192.778 292.219 192.84 290.186 193.148 289.262Z" fill="#B6B6B6"/>
<path d="M192.225 300.351C200.542 300.351 197.77 293.882 194.997 292.958C194.997 292.958 193.149 292.034 193.149 291.11C190.729 292.32 188.028 292.853 185.33 292.653L164.5 291.11V292.958V296.835C164.5 298.805 166.043 300.424 168.013 300.456C175.016 300.569 185.984 300.351 192.225 300.351Z" fill="#383838"/>
</g>
<g clip-path="url(#clip5_12868_20736)">
<path d="M165.208 280.944L114.334 279.151C113.421 279.119 112.669 278.432 112.568 277.524C108.15 238.04 109.056 188.748 114.04 164.879C116.855 164.004 122.373 162.712 127.751 162.464C130.271 162.347 132.761 162.46 134.927 162.952C159.408 166.859 180.514 165.741 203.723 162.338C209.226 162.826 213.169 163.983 214.404 164.5C217.133 214.529 216.281 242.176 214.491 277.401C214.442 278.357 213.671 279.123 212.714 279.159L165.208 280.944Z" fill="#F2F2F2"/>
<path d="M162.652 219.949C162.652 228.089 164.501 274.475 164.501 280.944" stroke="#E5E5E5" stroke-width="2.77247"/>
<g filter="url(#filter0_d_12868_20736)">
<path d="M146.201 178.685C139.885 171.695 136.911 164.156 135.85 161.728L124.76 162.652L121.369 178.388C121.102 179.626 122.019 180.805 123.284 180.85L134.224 181.247C135.641 181.298 136.356 182.634 135.466 183.737C133.905 185.673 131.613 188.246 129.981 190.075C129.294 190.846 129.29 192.01 130.039 192.721C138.391 200.65 156.594 207.277 165.054 209.697L167.855 206.362C163.269 200.049 152.516 185.676 146.201 178.685Z" fill="white"/>
</g>
<g filter="url(#filter1_d_12868_20736)">
<path d="M163.103 212.894C167.552 205.726 185.353 176.695 191.301 163.577L203.315 162.652L208.157 178.016C208.538 179.225 207.732 180.485 206.475 180.646L199.532 181.539C197.988 181.737 197.229 183.524 198.159 184.772L205.03 194.004C204.987 195.392 201.901 199.274 189.907 203.698C177.913 208.122 166.508 217.735 162.305 221.988C159.783 219.5 161.573 214.873 163.103 212.894Z" fill="white"/>
</g>
<path d="M140.932 180.564L135.636 162.217C162.155 168.568 184.979 165.423 192.223 163.576L188.092 183.224L166.348 207.011L140.932 180.564Z" fill="#4DB8AF"/>
<path d="M146.802 178.023C141.188 171.068 139.494 164.395 138.623 162.652L161.727 166.348C160.398 169.007 153.49 175.103 149.199 178.321C148.447 178.885 147.393 178.754 146.802 178.023Z" fill="#55CCC2"/>
<path d="M183.129 178.03C188.737 171.268 190.429 166.242 191.3 164.5L168.196 166.349C169.525 169.008 176.433 175.103 180.724 178.321C181.476 178.885 182.529 178.753 183.129 178.03Z" fill="#55CCC2"/>
<path d="M157.838 181.46L161.339 174.045H168.688L172.399 181.467C172.629 181.928 172.676 182.459 172.53 182.954L167.299 200.661C166.732 202.584 164.019 202.613 163.41 200.704L157.74 182.948C157.583 182.457 157.618 181.926 157.838 181.46Z" fill="#424242"/>
<path d="M158.106 172.875L157.107 170.045H172.818L171.897 172.808C171.343 174.469 169.788 175.59 168.036 175.59H161.944C160.218 175.59 158.68 174.502 158.106 172.875Z" fill="#404040"/>
<circle cx="169.706" cy="227.137" r="3.0523" fill="#828282"/>
<circle cx="169.706" cy="244.434" r="3.0523" fill="#828282"/>
<g clip-path="url(#clip6_12868_20736)">
<path d="M118.913 186.004C120.694 185.018 122.118 184.746 122.537 184.758C118.172 173.015 124.579 161.587 129.159 158.106C133.238 154.428 144.908 146.887 158.955 146.148C173.003 145.408 191.302 153.714 197.77 158.031L203.315 157.238C197.77 150.769 177.439 140.9 159.88 141.527C139.179 142.267 129.684 152.617 124.047 157.859C114.921 166.345 116.363 180.857 118.913 186.004Z" fill="#404040"/>
<path d="M118.053 188.948L118.915 191.457C122.664 189.669 125.248 189.176 126.071 189.153L125.161 186.505C124.471 184.498 122.139 183.947 120.978 184.347C117.328 185.471 117.812 188.096 118.053 188.948Z" fill="#656161"/>
<path d="M114.091 213.688L109.853 214.054C109.047 212.617 109.404 210.935 109.661 208.509C109.918 206.083 112.021 189.675 125.436 188.804C136.168 188.107 144.617 196.857 147.158 201.074L143.22 203.675C140.111 200.068 133.8 190.733 123.208 194.374C114.733 197.287 113.969 208.951 114.091 213.688Z" fill="#404040"/>
<path d="M110.868 213.884C110.706 221.576 112.356 232.673 113.332 237.325C116.047 245.946 124.173 245.287 128.438 243.822L129.19 243.562L129.879 242.391L129.447 241.136C129.263 241.324 128.938 241.467 128.798 241.515C121.69 243.959 116.821 241.58 115.562 236.559C114.555 232.541 113.478 219.768 113.066 213.884L110.868 213.884Z" fill="#A2A2A2"/>
<path d="M146.237 201.95C151.093 207.917 156.542 217.42 158.633 221.689C161.792 230.158 154.979 234.633 150.715 236.101L149.961 236.358L148.698 235.857L148.267 234.603C148.528 234.638 148.872 234.551 149.012 234.503C156.12 232.059 158.498 227.19 156.403 222.455C154.727 218.668 147.722 207.933 144.429 203.039L146.237 201.95Z" fill="#A2A2A2"/>
<path d="M131.614 243.353C131.018 243.434 129.751 243.526 129.192 243.562L130.02 242.343L129.589 241.089L131.17 240.701C132.281 239.945 132.995 239.814 133.212 239.843C135.488 239.933 135.299 241.983 134.92 242.996C134.144 244.821 132.164 244.047 131.614 243.353Z" fill="#404040"/>
<path d="M147.926 237.683C148.446 237.38 149.502 236.674 149.965 236.359L148.562 235.906L148.131 234.651L146.646 235.318C145.304 235.405 144.661 235.74 144.507 235.897C142.769 237.368 144.178 238.868 145.1 239.434C146.833 240.396 147.919 238.569 147.926 237.683Z" fill="#404040"/>
<path d="M204.664 171.187L201.349 204.951L205.394 205.349C206.22 197.54 208.038 179.855 208.709 171.584C209.173 165.862 206.099 160.531 203.019 156.897L196.966 157.478C202.141 160.513 205.045 167.303 204.664 171.187Z" fill="#404040"/>
<rect x="184.831" y="242.13" width="22.1798" height="3.69663" rx="1.84831" fill="#D9D9D9"/>
<circle cx="10.8988" cy="10.8988" r="10.8988" transform="matrix(0.995217 0.097692 0.097692 -0.995217 190.377 223.16)" fill="#404040"/>
<circle cx="8.61355" cy="8.61355" r="8.61355" transform="matrix(0.995217 0.097692 0.097692 -0.995217 193.032 221.301)" fill="#656161"/>
<circle cx="5.44939" cy="5.44939" r="5.44939" transform="matrix(0.995217 0.097692 0.097692 -0.995217 196.49 218.46)" fill="#A2A2A2"/>
</g>
</g>
<g clip-path="url(#clip7_12868_20736)">
<path d="M67.4925 90.951C82.279 26.6297 129.719 12.3977 151.591 13.3218C160.833 -5.16121 182.088 0.383539 175.619 2.23185C170.443 3.71051 169.766 9.0092 170.074 11.4737C171.922 10.5496 182.088 5.92878 179.315 9.6254C177.097 12.5827 179.007 13.9381 180.239 14.2462C200.992 16.0945 246.311 34.0231 261.565 90.951C280.632 162.111 207.013 170.045 170.074 170.045C128.419 170.045 49.0093 171.353 67.4925 90.951Z" fill="#CECECE"/>
<g clip-path="url(#clip8_12868_20736)">
<path d="M164.499 111.514C146.784 111.514 132.423 126.719 132.423 145.476C132.423 154.876 136.029 163.384 141.857 169.533L152.485 170.043H164.499H176.513L187.141 169.533C192.968 163.384 196.575 154.876 196.575 145.476C196.575 126.719 182.214 111.514 164.499 111.514Z" fill="#E9E9E9"/>
<path d="M146.491 105.264C147.184 98.1948 149.545 93.2037 152.424 89.7727C158.117 82.9876 169.399 82.2321 175.344 88.7979C179.63 93.5312 181.5 100.285 182.135 105.264C185.409 130.938 179.205 134.927 163.653 134.927C148.471 134.927 144.51 125.46 146.491 105.264Z" fill="#404040"/>
<path d="M172.901 102.21C171.322 102.21 170.911 100.633 171.117 97.2666C171.292 94.4042 174.548 94.286 174.811 97.1416C174.815 97.1839 174.818 97.2256 174.822 97.2666C175.162 101.546 174.517 102.21 172.901 102.21Z" fill="white"/>
<path d="M152.459 150.764C153.701 147.602 157.609 141.278 164.656 141.278C171.703 141.278 175.836 147.15 176.852 150.087" stroke="#404040" stroke-width="3.04916" stroke-linecap="round"/>
</g>
<g clip-path="url(#clip9_12868_20736)">
<g clip-path="url(#clip10_12868_20736)">
<circle cx="120.14" cy="91.4914" r="18.4831" fill="white"/>
<path d="M120.14 73.0083C109.932 73.0083 101.657 81.2835 101.657 91.4914C101.657 98.1244 105.151 103.941 110.399 107.202C106.253 101.041 101.103 87.0555 113.671 80.4016C126.24 73.7476 135.543 85.0223 138.624 91.4914C138.624 81.2835 130.348 73.0083 120.14 73.0083Z" fill="#404040"/>
<path d="M138.623 93.3399C138.623 102.527 131.176 109.975 121.988 109.975C117.454 109.563 113.472 109.891 110.898 108.126C107.702 105.936 105.354 99.809 105.354 93.3399C105.354 84.1527 112.801 76.7051 121.988 76.7051C131.176 76.7051 138.623 84.1527 138.623 93.3399Z" fill="white"/>
<circle cx="123.837" cy="91.4916" r="14.7865" fill="#404040"/>
<circle cx="131.23" cy="89.6429" r="3.69663" fill="white"/>
</g>
<path d="M97.5727 87.3012C112.178 88.3299 126.774 81.1532 132.246 77.4363C127.786 70.8696 118.154 70.149 109.33 71.6068C102.27 72.7729 98.5503 82.5556 97.5727 87.3012Z" fill="#CECECE"/>
<g clip-path="url(#clip11_12868_20736)">
<circle cx="18.4831" cy="18.4831" r="18.4831" transform="matrix(-1 0 0 1 227.344 73.0083)" fill="white"/>
<path d="M208.861 73.0083C219.069 73.0083 227.344 81.2835 227.344 91.4914C227.344 98.1244 223.85 103.941 218.602 107.202C222.748 101.041 227.898 87.0555 215.33 80.4016C202.761 73.7476 193.458 85.0223 190.377 91.4914C190.377 81.2835 198.653 73.0083 208.861 73.0083Z" fill="#404040"/>
<path d="M190.379 93.3399C190.379 102.527 197.826 109.975 207.014 109.975C211.548 109.563 215.529 109.891 218.103 108.126C221.3 105.936 223.648 99.809 223.648 93.3399C223.648 84.1527 216.201 76.7051 207.014 76.7051C197.826 76.7051 190.379 84.1527 190.379 93.3399Z" fill="white"/>
<circle cx="14.7865" cy="14.7865" r="14.7865" transform="matrix(-1 0 0 1 219.95 76.7051)" fill="#404040"/>
<circle cx="3.69663" cy="3.69663" r="3.69663" transform="matrix(-1 0 0 1 201.469 85.9463)" fill="white"/>
<path d="M231.333 85.2689C216.727 86.2976 202.131 79.121 196.659 75.4041C201.119 68.8374 210.751 68.1168 219.575 69.5745C226.635 70.7407 230.355 80.5234 231.333 85.2689Z" fill="#CECECE"/>
</g>
<path d="M137.536 66.2567C131.561 68.521 126.356 67.9456 122.828 66.7517C121.217 66.2064 121.546 64.2418 123.186 63.7892C130.405 61.7965 135.841 58.9752 139.54 56.4311C142.081 54.6833 145.912 55.7561 145.087 58.728C144.292 61.5943 142.165 64.5026 137.536 66.2567Z" fill="#404040"/>
<path d="M191.775 66.2572C197.75 68.5215 202.954 67.9461 206.482 66.7522C208.093 66.2069 207.764 64.2423 206.124 63.7896C198.906 61.797 193.469 58.9757 189.77 56.4316C187.229 54.6838 183.399 55.7566 184.223 58.7285C185.018 61.5948 187.146 64.5031 191.775 66.2572Z" fill="#404040"/>
</g>
<path d="M99.6064 88.4255C106.213 88.4255 126.032 83.8518 133.655 75.7207" stroke="#404040" stroke-width="2.03277" stroke-linecap="round"/>
<path d="M230.212 86.3929C223.605 86.3929 204.802 82.3274 197.179 74.1963" stroke="#404040" stroke-width="2.03277" stroke-linecap="round"/>
</g>
<defs>
<filter id="filter0_d_12868_20736" x="113.929" y="161.728" width="61.3197" height="62.7558" filterUnits="userSpaceOnUse" color-interpolation-filters="sRGB">
<feFlood flood-opacity="0" result="BackgroundImageFix"/>
<feColorMatrix in="SourceAlpha" type="matrix" values="0 0 0 0 0 0 0 0 0 0 0 0 0 0 0 0 0 0 127 0" result="hardAlpha"/>
<feOffset dy="7.39326"/>
<feGaussianBlur stdDeviation="3.69663"/>
<feComposite in2="hardAlpha" operator="out"/>
<feColorMatrix type="matrix" values="0 0 0 0 0 0 0 0 0 0 0 0 0 0 0 0 0 0 0.04 0"/>
<feBlend mode="normal" in2="BackgroundImageFix" result="effect1_dropShadow_12868_20736"/>
<feBlend mode="normal" in="SourceGraphic" in2="effect1_dropShadow_12868_20736" result="shape"/>
</filter>
<filter id="filter1_d_12868_20736" x="153.651" y="162.652" width="61.9945" height="74.122" filterUnits="userSpaceOnUse" color-interpolation-filters="sRGB">
<feFlood flood-opacity="0" result="BackgroundImageFix"/>
<feColorMatrix in="SourceAlpha" type="matrix" values="0 0 0 0 0 0 0 0 0 0 0 0 0 0 0 0 0 0 127 0" result="hardAlpha"/>
<feOffset dy="7.39326"/>
<feGaussianBlur stdDeviation="3.69663"/>
<feComposite in2="hardAlpha" operator="out"/>
<feColorMatrix type="matrix" values="0 0 0 0 0 0 0 0 0 0 0 0 0 0 0 0 0 0 0.04 0"/>
<feBlend mode="normal" in2="BackgroundImageFix" result="effect1_dropShadow_12868_20736"/>
<feBlend mode="normal" in="SourceGraphic" in2="effect1_dropShadow_12868_20736" result="shape"/>
</filter>
<clipPath id="clip0_12868_20736">
<rect width="99.809" height="120.14" fill="white" transform="translate(0 14.7861)"/>
</clipPath>
<clipPath id="clip1_12868_20736">
<rect width="99.809" height="120.14" fill="white" transform="matrix(-1 0 0 1 328.999 14.7861)"/>
</clipPath>
<clipPath id="clip2_12868_20736">
<rect width="55.4494" height="94.2641" fill="white" transform="matrix(-1 0 0 1 245.827 164.5)"/>
</clipPath>
<clipPath id="clip3_12868_20736">
<rect width="55.4494" height="94.2641" fill="white" transform="translate(83.1729 164.5)"/>
</clipPath>
<clipPath id="clip4_12868_20736">
<rect width="68.3876" height="22.1798" fill="white" transform="translate(129.383 279.095)"/>
</clipPath>
<clipPath id="clip5_12868_20736">
<rect width="170.045" height="121.989" fill="white" transform="translate(79.4775 158.955)"/>
</clipPath>
<clipPath id="clip6_12868_20736">
<rect width="105.354" height="105.354" fill="white" transform="translate(109.05 140.472)"/>
</clipPath>
<clipPath id="clip7_12868_20736">
<rect width="199.618" height="170.045" fill="white" transform="matrix(-1 0 0 1 264.309 0.000488281)"/>
</clipPath>
<clipPath id="clip8_12868_20736">
<rect width="66.5393" height="86.8708" fill="white" transform="translate(131.231 83.1743)"/>
</clipPath>
<clipPath id="clip9_12868_20736">
<rect width="125.685" height="57.2978" fill="white" transform="translate(101.657 53.6006)"/>
</clipPath>
<clipPath id="clip10_12868_20736">
<rect x="101.657" y="73.0083" width="36.9663" height="36.9663" rx="18.4831" fill="white"/>
</clipPath>
<clipPath id="clip11_12868_20736">
<rect width="36.9663" height="36.9663" rx="18.4831" transform="matrix(-1 0 0 1 227.344 73.0083)" fill="white"/>
</clipPath>
</defs>
</svg>
