<svg width="324" height="297" viewBox="0 0 324 297" fill="none" xmlns="http://www.w3.org/2000/svg">
<g clip-path="url(#clip0_11348_1408)">
<path d="M62.31 14.8484C75.1058 16.744 91.7324 30.6456 98.4463 37.3595C67.1677 84.7513 73.0607 120.587 78.7872 132.435C34.7128 136.7 13.5359 96.7967 9.5866 76.4577C8.00687 77.0501 3.19557 76.9272 0.70063 69.9414C-2.26136 61.6478 4.84742 48.2201 8.9942 41.5063C4.25502 40.9139 4.25502 38.5443 4.25502 37.9519C4.25502 37.3595 3.66262 34.3975 18.4726 23.7343C30.3205 15.2038 44.3406 16.6256 49.8697 18.4028C51.2914 14.1375 58.7556 14.256 62.31 14.8484Z" fill="#B6B6B6"/>
<path d="M56.3715 46.5846C69.2084 45.7564 81.8593 55.2504 85.7383 59.4988C74.9168 80.3093 72.4196 104.449 74.9168 118.601C29.9661 109.444 31.4581 75.7139 31.9889 69.6415C32.5807 62.8701 39.1932 47.6929 56.3715 46.5846Z" fill="#797979"/>
</g>
<g clip-path="url(#clip1_11348_1408)">
<path d="M261.385 14.8484C248.59 16.744 231.963 30.6456 225.249 37.3595C256.528 84.7513 250.635 120.587 244.908 132.435C288.982 136.7 310.159 96.7967 314.109 76.4577C315.688 77.0501 320.5 76.9272 322.995 69.9414C325.957 61.6478 318.848 48.2201 314.701 41.5063C319.44 40.9139 319.44 38.5443 319.44 37.9519C319.44 37.3595 320.033 34.3975 305.223 23.7343C293.375 15.2038 279.355 16.6256 273.826 18.4028C272.404 14.1375 264.94 14.256 261.385 14.8484Z" fill="#B6B6B6"/>
<path d="M267.324 46.5846C254.487 45.7564 241.836 55.2504 237.957 59.4988C248.778 80.3093 251.276 104.449 248.778 118.601C293.729 109.444 292.237 75.7139 291.706 69.6415C291.115 62.8701 284.502 47.6929 267.324 46.5846Z" fill="#797979"/>
</g>
<g clip-path="url(#clip2_11348_1408)">
<path d="M230.492 239.234C235.584 199.954 214.428 172.555 203.214 163.766C196.667 163.038 193.818 166.493 193.212 168.312C182.301 208.319 195.94 250.145 197.758 251.964C199.213 253.419 202.002 253.782 203.214 253.782C222.127 255.237 229.28 244.69 230.492 239.234Z" fill="#B6B6B6"/>
<path d="M239.702 235.163C242.764 197.631 223.602 168.931 212.766 162.757C198.218 159.12 194.389 165.485 193.671 167.303C183.609 192.796 187.808 230.956 194.581 240.953C208.163 248.594 232.238 241.359 238.523 237.314C239.251 236.846 239.632 236.026 239.702 235.163Z" fill="#E9E9E9"/>
</g>
<g clip-path="url(#clip3_11348_1408)">
<path d="M93.2045 239.234C88.1126 199.954 109.268 172.555 120.482 163.766C127.029 163.038 129.878 166.493 130.484 168.312C141.395 208.319 127.756 250.145 125.938 251.964C124.483 253.419 121.695 253.782 120.482 253.782C101.57 255.237 94.4168 244.69 93.2045 239.234Z" fill="#B6B6B6"/>
<path d="M83.9932 235.163C80.9314 197.631 100.093 168.931 110.93 162.757C125.478 159.12 129.306 165.485 130.024 167.303C140.086 192.796 135.887 230.956 129.115 240.953C115.532 248.594 91.4576 241.359 85.1724 237.314C84.4447 236.846 84.0635 236.026 83.9932 235.163Z" fill="#E9E9E9"/>
</g>
<g clip-path="url(#clip4_11348_1408)">
<path d="M132.751 284.598C129.841 275.869 126.689 264.594 125.477 260.048H160.938V292.049C160.938 293.987 159.419 295.58 157.481 295.612C150.591 295.723 139.8 295.509 133.66 295.509C125.477 295.509 128.204 289.144 130.932 288.235C133.114 287.507 133.054 285.507 132.751 284.598Z" fill="#B6B6B6"/>
<path d="M133.662 295.509C125.478 295.509 128.206 289.144 130.934 288.235C130.934 288.235 132.752 287.326 132.752 286.417C134.521 287.595 136.63 288.153 138.75 288.001L160.939 286.417V288.235V292.049C160.939 293.987 159.421 295.581 157.483 295.612C150.593 295.723 139.801 295.509 133.662 295.509Z" fill="#383838"/>
<path d="M190.035 284.598C192.944 275.869 196.096 264.594 197.309 260.048H161.847V292.049C161.847 293.987 163.366 295.58 165.304 295.612C172.194 295.723 182.986 295.509 189.125 295.509C197.309 295.509 194.581 289.144 191.853 288.235C189.671 287.507 189.731 285.507 190.035 284.598Z" fill="#B6B6B6"/>
<path d="M189.126 295.509C197.31 295.509 194.582 289.144 191.854 288.235C191.854 288.235 190.036 287.326 190.036 286.417C187.655 287.607 184.998 288.131 182.343 287.935L161.849 286.417V288.235V292.049C161.849 293.987 163.367 295.581 165.305 295.612C172.195 295.723 182.987 295.509 189.126 295.509Z" fill="#383838"/>
</g>
<g clip-path="url(#clip5_11348_1408)">
<path d="M162.546 276.415L112.492 274.651C111.594 274.62 110.854 273.943 110.754 273.05C106.408 234.202 107.299 185.705 112.203 162.221C114.973 161.361 120.402 160.089 125.693 159.845C128.173 159.73 130.622 159.841 132.753 160.325C156.839 164.169 177.605 163.069 200.44 159.721C205.854 160.201 209.734 161.339 210.949 161.848C213.634 211.071 212.795 238.271 211.034 272.929C210.986 273.87 210.228 274.623 209.286 274.659L162.546 276.415Z" fill="#F2F2F2"/>
<path d="M160.03 216.403C160.03 224.411 161.849 270.049 161.849 276.414" stroke="#E5E5E5" stroke-width="2.72778"/>
<g filter="url(#filter0_d_11348_1408)">
<path d="M143.845 175.804C137.631 168.926 134.705 161.509 133.661 159.12L122.75 160.03L119.414 175.512C119.151 176.73 120.053 177.889 121.298 177.935L132.061 178.325C133.455 178.375 134.159 179.689 133.283 180.775C131.747 182.679 129.492 185.211 127.887 187.01C127.211 187.769 127.207 188.915 127.944 189.614C136.161 197.414 154.071 203.935 162.394 206.316L165.151 203.035C160.638 196.824 150.059 182.682 143.845 175.804Z" fill="white"/>
</g>
<g filter="url(#filter1_d_11348_1408)">
<path d="M160.474 209.462C164.851 202.409 182.365 173.846 188.217 160.939L200.038 160.03L204.801 175.146C205.176 176.336 204.384 177.575 203.147 177.734L196.315 178.612C194.796 178.807 194.05 180.565 194.964 181.793L201.725 190.876C201.682 192.241 198.646 196.061 186.845 200.414C175.045 204.767 163.824 214.224 159.688 218.408C157.207 215.961 158.969 211.409 160.474 209.462Z" fill="white"/>
</g>
<path d="M138.66 177.652L133.449 159.602C159.541 165.85 181.997 162.756 189.125 160.939L185.059 180.27L163.666 203.674L138.66 177.652Z" fill="#4DB8AF"/>
<path d="M144.436 175.152C138.912 168.31 137.246 161.744 136.389 160.029L159.12 163.666C157.812 166.282 151.016 172.279 146.794 175.446C146.054 176 145.017 175.872 144.436 175.152Z" fill="#55CCC2"/>
<path d="M180.177 175.159C185.694 168.507 187.359 163.562 188.216 161.848L165.484 163.667C166.792 166.283 173.588 172.28 177.81 175.446C178.55 176.001 179.587 175.871 180.177 175.159Z" fill="#55CCC2"/>
<path d="M155.295 178.534L158.739 171.239H165.969L169.621 178.541C169.847 178.995 169.894 179.517 169.75 180.004L164.603 197.426C164.045 199.317 161.376 199.347 160.776 197.468L155.198 179.998C155.044 179.515 155.078 178.992 155.295 178.534Z" fill="#424242"/>
<path d="M155.557 170.088L154.574 167.304H170.032L169.126 170.021C168.581 171.656 167.051 172.759 165.327 172.759H159.333C157.635 172.759 156.122 171.689 155.557 170.088Z" fill="#404040"/>
<circle cx="166.97" cy="223.475" r="3.0031" fill="#828282"/>
<circle cx="166.97" cy="240.493" r="3.0031" fill="#828282"/>
<g clip-path="url(#clip6_11348_1408)">
<path d="M116.997 183.004C118.749 182.034 120.15 181.767 120.563 181.779C116.268 170.225 122.571 158.981 127.078 155.557C131.091 151.938 142.573 144.518 156.394 143.791C170.214 143.064 188.218 151.235 194.583 155.483L200.038 154.702C194.583 148.338 174.579 138.628 157.303 139.245C136.936 139.972 127.594 150.156 122.048 155.313C113.069 163.663 114.487 177.941 116.997 183.004Z" fill="#404040"/>
<path d="M116.15 185.901L116.999 188.369C120.688 186.61 123.23 186.125 124.04 186.102L123.144 183.497C122.465 181.522 120.171 180.981 119.028 181.374C115.438 182.48 115.913 185.062 116.15 185.901Z" fill="#656161"/>
<path d="M112.252 210.242L108.083 210.602C107.29 209.188 107.641 207.534 107.894 205.147C108.147 202.76 110.216 186.616 123.415 185.759C133.974 185.073 142.287 193.682 144.787 197.832L140.913 200.39C137.853 196.842 131.644 187.657 121.222 191.24C112.885 194.106 112.132 205.581 112.252 210.242Z" fill="#404040"/>
<path d="M109.081 210.435C108.923 218.003 110.546 228.922 111.506 233.499C114.178 241.981 122.172 241.332 126.368 239.891L127.109 239.635L127.786 238.482L127.362 237.248C127.18 237.433 126.86 237.574 126.723 237.621C119.73 240.025 114.939 237.685 113.7 232.744C112.709 228.792 111.65 216.224 111.244 210.435L109.081 210.435Z" fill="#A2A2A2"/>
<path d="M143.88 198.693C148.659 204.564 154.02 213.914 156.077 218.114C159.185 226.446 152.481 230.85 148.286 232.293L147.545 232.547L146.302 232.054L145.878 230.82C146.135 230.854 146.473 230.768 146.61 230.721C153.604 228.317 155.944 223.526 153.883 218.868C152.234 215.141 145.342 204.579 142.102 199.764L143.88 198.693Z" fill="#A2A2A2"/>
<path d="M129.492 239.429C128.906 239.508 127.66 239.599 127.11 239.635L127.924 238.435L127.5 237.201L129.055 236.82C130.149 236.076 130.851 235.947 131.065 235.975C133.304 236.065 133.118 238.081 132.745 239.078C131.982 240.873 130.034 240.112 129.492 239.429Z" fill="#404040"/>
<path d="M145.542 233.85C146.053 233.552 147.092 232.858 147.547 232.548L146.167 232.102L145.743 230.868L144.282 231.524C142.962 231.609 142.329 231.939 142.178 232.093C140.467 233.54 141.854 235.016 142.761 235.573C144.466 236.52 145.535 234.722 145.542 233.85Z" fill="#404040"/>
<path d="M201.365 168.426L198.104 201.646L202.084 202.037C202.896 194.354 204.685 176.955 205.345 168.817C205.801 163.187 202.777 157.942 199.747 154.367L193.792 154.938C198.883 157.924 201.74 164.605 201.365 168.426Z" fill="#404040"/>
<rect x="181.852" y="238.226" width="21.8222" height="3.63704" rx="1.81852" fill="#D9D9D9"/>
<circle cx="10.7231" cy="10.7231" r="10.7231" transform="matrix(0.995217 0.097692 0.097692 -0.995217 187.308 219.562)" fill="#404040"/>
<circle cx="8.4747" cy="8.4747" r="8.4747" transform="matrix(0.995217 0.097692 0.097692 -0.995217 189.921 217.734)" fill="#656161"/>
<circle cx="5.36154" cy="5.36154" r="5.36154" transform="matrix(0.995217 0.097692 0.097692 -0.995217 193.323 214.938)" fill="#A2A2A2"/>
</g>
</g>
<g clip-path="url(#clip7_11348_1408)">
<path d="M66.4033 89.4844C80.9514 26.1999 127.627 12.1973 149.146 13.1066C158.239 -5.07848 179.151 0.376876 172.786 2.19539C167.694 3.65021 167.028 8.86349 167.331 11.2883C169.149 10.379 179.151 5.83272 176.423 9.46975C174.241 12.3794 176.12 13.713 177.333 14.016C197.751 15.8346 242.339 33.4742 257.347 89.4844C276.107 159.497 203.675 167.304 167.331 167.304C126.348 167.304 48.2181 168.59 66.4033 89.4844Z" fill="#CECECE"/>
<g clip-path="url(#clip8_11348_1408)">
<path d="M161.847 109.716C144.417 109.716 130.288 124.676 130.288 143.131C130.288 152.379 133.836 160.75 139.57 166.8L150.027 167.302H161.848H173.668L184.124 166.8C189.858 160.75 193.406 152.379 193.406 143.131C193.406 124.676 179.276 109.716 161.847 109.716Z" fill="#E9E9E9"/>
<path d="M161.693 147.299C155.728 147.299 152.308 141.792 150.864 139.265C156.929 140.131 160.249 136.016 161.693 133.851C163.426 137.316 168.913 138.904 171.439 139.265C169.274 143.597 167.658 147.299 161.693 147.299Z" fill="#404040"/>
<path d="M155.198 142.514C158.212 146.391 164.577 147.3 168.193 142.514C166.027 139.266 159.53 137.316 155.198 142.514Z" fill="#F27A7A"/>
<path d="M143.284 136.016C146.559 139.626 156.279 142.514 161.694 133.851C163.859 137.099 171.223 143.813 179.02 136.016" stroke="#404040" stroke-width="2.36407" stroke-linecap="round"/>
<path d="M144.128 103.567C144.81 96.6113 147.133 91.7007 149.966 88.325C155.568 81.6493 166.667 80.906 172.517 87.366C176.733 92.0229 178.573 98.6676 179.198 103.567C182.42 128.827 176.315 132.752 161.014 132.752C146.077 132.752 142.18 123.437 144.128 103.567Z" fill="#404040"/>
<path d="M170.112 100.562C168.559 100.562 168.154 99.0097 168.357 95.6979C168.529 92.8817 171.733 92.7654 171.992 95.575C171.996 95.6166 171.999 95.6576 172.002 95.6979C172.337 99.908 171.703 100.562 170.112 100.562Z" fill="white"/>
</g>
<g clip-path="url(#clip9_11348_1408)">
<path d="M130.933 52.7363C125.075 52.7363 120.801 54.9201 118.165 57.0894C116.961 58.0802 117.881 59.6573 119.434 59.5126C126.269 58.876 131.846 59.5284 135.843 60.5078C138.589 61.1805 141.523 59.0167 139.852 56.737C138.239 54.5383 135.471 52.7363 130.933 52.7363Z" fill="#404040"/>
<path d="M195.491 52.7363C201.348 52.7363 205.623 54.9201 208.259 57.0894C209.463 58.0802 208.542 59.6573 206.99 59.5126C200.155 58.876 194.578 59.5284 190.581 60.5078C187.835 61.1805 184.9 59.0167 186.572 56.737C188.185 54.5383 190.953 52.7363 195.491 52.7363Z" fill="#404040"/>
<g clip-path="url(#clip10_11348_1408)">
<circle cx="118.203" cy="90.0162" r="18.1852" fill="white"/>
<path d="M118.203 71.8311C108.159 71.8311 100.018 79.9728 100.018 90.0162C100.018 96.5423 103.455 102.265 108.618 105.474C104.539 99.4119 99.472 85.6518 111.838 79.1051C124.204 72.5585 133.357 83.6514 136.388 90.0162C136.388 79.9728 128.246 71.8311 118.203 71.8311Z" fill="#404040"/>
<path d="M136.389 91.8344C136.389 100.873 129.061 108.201 120.022 108.201C115.561 107.796 111.643 108.118 109.111 106.383C105.966 104.227 103.655 98.1992 103.655 91.8344C103.655 82.7954 110.983 75.4678 120.022 75.4678C129.061 75.4678 136.389 82.7954 136.389 91.8344Z" fill="white"/>
<circle cx="121.84" cy="90.0159" r="14.5481" fill="#404040"/>
<circle cx="129.114" cy="88.1976" r="3.63704" fill="white"/>
</g>
<g clip-path="url(#clip11_11348_1408)">
<circle cx="18.1852" cy="18.1852" r="18.1852" transform="matrix(-1 0 0 1 223.678 71.8311)" fill="white"/>
<path d="M205.493 71.8311C215.536 71.8311 223.678 79.9728 223.678 90.0162C223.678 96.5423 220.24 102.265 215.077 105.474C219.156 99.4119 224.223 85.6518 211.857 79.1051C199.491 72.5585 190.338 83.6514 187.307 90.0162C187.307 79.9728 195.449 71.8311 205.493 71.8311Z" fill="#404040"/>
<path d="M187.308 91.8344C187.308 100.873 194.635 108.201 203.674 108.201C208.136 107.796 212.053 108.118 214.585 106.383C217.731 104.227 220.041 98.1992 220.041 91.8344C220.041 82.7954 212.713 75.4678 203.674 75.4678C194.635 75.4678 187.308 82.7954 187.308 91.8344Z" fill="white"/>
<circle cx="14.5481" cy="14.5481" r="14.5481" transform="matrix(-1 0 0 1 216.404 75.4678)" fill="#404040"/>
<circle cx="3.63704" cy="3.63704" r="3.63704" transform="matrix(-1 0 0 1 198.219 84.5605)" fill="white"/>
</g>
</g>
</g>
<defs>
<filter id="filter0_d_11348_1408" x="112.094" y="159.121" width="60.3304" height="61.7439" filterUnits="userSpaceOnUse" color-interpolation-filters="sRGB">
<feFlood flood-opacity="0" result="BackgroundImageFix"/>
<feColorMatrix in="SourceAlpha" type="matrix" values="0 0 0 0 0 0 0 0 0 0 0 0 0 0 0 0 0 0 127 0" result="hardAlpha"/>
<feOffset dy="7.27407"/>
<feGaussianBlur stdDeviation="3.63704"/>
<feComposite in2="hardAlpha" operator="out"/>
<feColorMatrix type="matrix" values="0 0 0 0 0 0 0 0 0 0 0 0 0 0 0 0 0 0 0.04 0"/>
<feBlend mode="normal" in2="BackgroundImageFix" result="effect1_dropShadow_11348_1408"/>
<feBlend mode="normal" in="SourceGraphic" in2="effect1_dropShadow_11348_1408" result="shape"/>
</filter>
<filter id="filter1_d_11348_1408" x="151.174" y="160.029" width="60.9944" height="72.9275" filterUnits="userSpaceOnUse" color-interpolation-filters="sRGB">
<feFlood flood-opacity="0" result="BackgroundImageFix"/>
<feColorMatrix in="SourceAlpha" type="matrix" values="0 0 0 0 0 0 0 0 0 0 0 0 0 0 0 0 0 0 127 0" result="hardAlpha"/>
<feOffset dy="7.27407"/>
<feGaussianBlur stdDeviation="3.63704"/>
<feComposite in2="hardAlpha" operator="out"/>
<feColorMatrix type="matrix" values="0 0 0 0 0 0 0 0 0 0 0 0 0 0 0 0 0 0 0.04 0"/>
<feBlend mode="normal" in2="BackgroundImageFix" result="effect1_dropShadow_11348_1408"/>
<feBlend mode="normal" in="SourceGraphic" in2="effect1_dropShadow_11348_1408" result="shape"/>
</filter>
<clipPath id="clip0_11348_1408">
<rect width="98.2" height="118.204" fill="white" transform="translate(0 14.5479)"/>
</clipPath>
<clipPath id="clip1_11348_1408">
<rect width="98.2" height="118.204" fill="white" transform="matrix(-1 0 0 1 323.696 14.5479)"/>
</clipPath>
<clipPath id="clip2_11348_1408">
<rect width="54.5555" height="92.7444" fill="white" transform="matrix(-1 0 0 1 241.863 161.848)"/>
</clipPath>
<clipPath id="clip3_11348_1408">
<rect width="54.5555" height="92.7444" fill="white" transform="translate(81.833 161.848)"/>
</clipPath>
<clipPath id="clip4_11348_1408">
<rect width="67.2852" height="21.8222" fill="white" transform="translate(127.297 274.596)"/>
</clipPath>
<clipPath id="clip5_11348_1408">
<rect width="167.304" height="120.022" fill="white" transform="translate(78.1963 156.393)"/>
</clipPath>
<clipPath id="clip6_11348_1408">
<rect width="103.656" height="103.656" fill="white" transform="translate(107.292 138.207)"/>
</clipPath>
<clipPath id="clip7_11348_1408">
<rect width="196.4" height="167.304" fill="white" transform="matrix(-1 0 0 1 260.048 0)"/>
</clipPath>
<clipPath id="clip8_11348_1408">
<rect width="65.4666" height="85.4703" fill="white" transform="translate(129.114 81.833)"/>
</clipPath>
<clipPath id="clip9_11348_1408">
<rect width="123.659" height="56.3741" fill="white" transform="translate(100.018 52.7363)"/>
</clipPath>
<clipPath id="clip10_11348_1408">
<rect x="100.018" y="71.8311" width="36.3704" height="36.3704" rx="18.1852" fill="white"/>
</clipPath>
<clipPath id="clip11_11348_1408">
<rect width="36.3704" height="36.3704" rx="18.1852" transform="matrix(-1 0 0 1 223.678 71.8311)" fill="white"/>
</clipPath>
</defs>
</svg>
