<svg width="256" height="97" viewBox="0 0 256 97" fill="none" xmlns="http://www.w3.org/2000/svg">
<g clip-path="url(#clip0_11748_741)">
<path d="M20.0068 0.663086V57.876L34.7705 37.6426C35.8942 36.1026 37.6855 35.1915 39.5918 35.1914H44.1279C49.0655 35.1914 51.8675 40.8448 48.8779 44.7744L37.0518 60.3193L54.8975 84.5586C57.7991 88.4999 54.9851 94.0664 50.0908 94.0664H43.6318C41.7182 94.0663 39.9204 93.1485 38.7979 91.5986L20.0068 65.6523V88.0967C20.0068 91.3932 17.3337 94.0664 14.0371 94.0664H7.95996C4.66344 94.0664 1.99121 91.3932 1.99121 88.0967V17.2432C1.99129 8.0862 9.41433 0.663161 18.5713 0.663086H20.0068Z" fill="white" stroke="white" stroke-width="1.32643"/>
</g>
<path d="M88.9082 31.1729C94.7722 31.1729 100.1 32.5747 104.875 35.3867L105.325 35.6523C109.939 38.4284 113.61 42.1268 116.329 46.7402C119.21 51.454 120.647 56.7224 120.647 62.5283C120.647 68.2716 119.21 73.538 116.332 78.3125L116.331 78.3115C113.523 83.0759 109.702 86.8649 104.875 89.6699C100.1 92.4819 94.7722 93.8837 88.9082 93.8838C83.1052 93.8838 77.7775 92.4806 72.9404 89.6699C68.1128 86.8646 64.2599 83.0761 61.3887 78.3125L61.3848 78.3066C58.5729 73.5329 57.169 68.2687 57.1689 62.5283C57.1689 56.7254 58.5721 51.4591 61.3867 46.7461L61.3887 46.7441C64.2599 41.9805 68.1128 38.192 72.9404 35.3867C77.7775 32.576 83.1052 31.1729 88.9082 31.1729ZM88.9082 47.4619C86.1471 47.4619 83.6446 48.1332 81.3877 49.4736L81.3887 49.4746C79.1809 50.8239 77.4025 52.6313 76.0498 54.9062C74.7726 57.1613 74.1289 59.6971 74.1289 62.5283C74.1289 65.2949 74.7728 67.8352 76.0566 70.1611C77.4083 72.4305 79.184 74.2341 81.3877 75.5811C83.6448 76.9217 86.1468 77.5947 88.9082 77.5947C91.6719 77.5947 94.1403 76.9208 96.3311 75.582L96.3379 75.5781L96.7578 75.3193C98.8258 74.0018 100.458 72.2839 101.663 70.1611L101.666 70.1562C103.013 67.8302 103.686 65.2919 103.687 62.5283C103.687 59.6978 103.011 57.1625 101.67 54.9062L101.663 54.8945C100.378 52.6301 98.6059 50.8271 96.3379 49.4785L96.3311 49.4746C94.1403 48.1358 91.6719 47.462 88.9082 47.4619Z" fill="white" stroke="white" stroke-width="1.32643"/>
<g clip-path="url(#clip1_11748_741)">
<path d="M221.106 32.4971C224.897 32.4971 228.378 33.1833 231.539 34.5664H231.538C234.236 35.692 236.602 37.2079 238.634 39.1113C239.287 36.2039 241.884 34.0313 244.988 34.0312H254.188V89.5898C254.187 91.4211 252.703 92.9061 250.872 92.9062H241.79C239.959 92.906 238.475 91.4211 238.475 89.5898V87.9766C236.479 89.8194 234.167 91.3172 231.539 92.4668L231.528 92.4717C228.37 93.7878 224.892 94.4404 221.106 94.4404C215.678 94.4404 210.726 93.0326 206.269 90.2139C201.828 87.4059 198.268 83.6818 195.594 79.0508L195.589 79.041C192.973 74.3331 191.669 69.1378 191.669 63.4688C191.669 57.7996 192.973 52.6044 195.589 47.8965L195.592 47.8906C198.266 43.1939 201.828 39.4659 206.274 36.7197C210.73 33.9035 215.68 32.4971 221.106 32.4971ZM223.12 48.498C220.423 48.4981 217.986 49.1705 215.793 50.5107C213.589 51.8577 211.812 53.661 210.46 55.9307C209.177 58.1909 208.533 60.6992 208.533 63.4688C208.533 66.2381 209.178 68.7457 210.461 71.0059C211.813 73.2756 213.589 75.0797 215.793 76.4268C217.986 77.767 220.423 78.4394 223.12 78.4395C225.817 78.4395 228.254 77.767 230.447 76.4268C232.652 75.0792 234.396 73.2748 235.684 71.0059L235.69 70.9941C237.033 68.7357 237.707 66.2323 237.707 63.4688C237.707 60.705 237.033 58.2009 235.69 55.9424L235.684 55.9316C234.396 53.6627 232.652 51.8583 230.447 50.5107C228.254 49.1705 225.817 48.498 223.12 48.498Z" fill="white" stroke="white" stroke-width="1.32643"/>
</g>
<path d="M147.606 0.663086V88.0967C147.606 91.3932 144.933 94.0664 141.637 94.0664H135.56C132.263 94.0664 129.591 91.3932 129.591 88.0967V17.2432C129.591 8.0862 137.014 0.663162 146.171 0.663086H147.606Z" fill="white" stroke="white" stroke-width="1.32643"/>
<rect x="165.262" y="15.3775" width="12.488" height="17.7937" rx="6.24399" fill="white" stroke="white" stroke-width="2.10274"/>
<circle cx="158.24" cy="18.9684" r="3.23914" fill="white" stroke="white" stroke-width="0.153859"/>
<circle cx="184.771" cy="18.9684" r="3.23914" fill="white" stroke="white" stroke-width="0.153859"/>
<path d="M168.192 38.8643H174.824C177.388 38.8643 179.467 40.9429 179.467 43.5068V89.9316C179.467 92.4956 177.388 94.5742 174.824 94.5742H168.192C165.628 94.5742 163.55 92.4956 163.55 89.9316V43.5068C163.55 40.9429 165.628 38.8643 168.192 38.8643Z" fill="white" stroke="white" stroke-width="1.32643"/>
<defs>
<clipPath id="clip0_11748_741">
<rect width="58.3628" height="95.5028" fill="white"/>
</clipPath>
<clipPath id="clip1_11748_741">
<rect width="67.6478" height="95.5028" fill="white" transform="translate(188.352)"/>
</clipPath>
</defs>
</svg>
